<svg width="800" height="800" xmlns="http://www.w3.org/2000/svg">
 <g id="Layer_1">
  <title>Layer 1</title>
  <line id="svg_2" y2="804.25302" x2="27.71012" y1="-4.85319" x1="25.8919" stroke-width="60" stroke="#000" fill="none"/>
  <line transform="rotate(90 392.262 28.7838)" id="svg_8" y2="433.33693" x2="393.17157" y1="-375.76929" x1="391.35336" stroke-width="60" stroke="#000" fill="none"/>
  <line id="svg_9" y2="804.25303" x2="771.36054" y1="-4.85319" x1="769.54232" stroke-width="60" stroke="#000" fill="none"/>
  <line transform="rotate(90 403.172 770.616)" id="svg_7" y2="1175.16912" x2="404.08087" y1="366.06291" x1="402.26266" stroke-width="60" stroke="#000" fill="none"/>
  <path stroke="#000" id="svg_13" d="m588.0306,357.39185l0,-80.50099l-0.02968,0c-0.02968,-99.3622 -84.17597,-179.89159 -188.00091,-179.89159s-188.00091,80.5578 -188.00091,179.92l0,0l0,80.47259l-67.9997,0l0,345.60888l512.00123,0l0,-345.60888l-67.97002,0zm-316.63937,-80.47259c0,0 0,0 0,0c0,-67.88898 57.70031,-123.10914 128.60877,-123.10914c70.96782,0 128.66813,55.22016 128.66813,123.08073c0,0 0,0 0,0l0,80.50099l-257.27691,0l0,-80.47259z" stroke-width="0" fill="#000000"/>
 </g>
</svg>